<svg xmlns="http://www.w3.org/2000/svg" viewBox="0 0 512 512">
  <defs>
    <linearGradient id="bg" x1="0" y1="0" x2="1" y2="1">
      <stop offset="0%" stop-color="#0f172a"/>
      <stop offset="100%" stop-color="#1e293b"/>
    </linearGradient>
    <linearGradient id="accent" x1="0" y1="0" x2="1" y2="1">
      <stop offset="0%" stop-color="#f97316"/>
      <stop offset="100%" stop-color="#fb923c"/>
    </linearGradient>
  </defs>
  <rect width="512" height="512" rx="112" fill="url(#bg)"/>
  <path d="M112 146h288a26 26 0 0 1 26 26v168a26 26 0 0 1-26 26H112a26 26 0 0 1-26-26V172a26 26 0 0 1 26-26Z" fill="#111827" stroke="#334155" stroke-width="16"/>
  <path d="M138 186h236v52H138zm0 88h146v52H138z" fill="#0f172a"/>
  <path d="M308 274h66v52h-66z" fill="url(#accent)"/>
  <path d="M184 120c39 0 72 32 72 72v17h-36v-17c0-19-16-35-36-35s-36 16-36 35v17h-36v-17c0-40 33-72 72-72Z" fill="url(#accent)"/>
</svg>
